<?xml version="1.0" encoding="UTF-8" standalone="no"?>
<!-- Created with Inkscape (http://www.inkscape.org/) -->

<svg
   version="1.1"
   id="svg1"
   width="831.43231mm"
   height="831.43225mm"
   viewBox="0 0 3142.4213 3142.421"
   xml:space="preserve"
   xmlns:xlink="http://www.w3.org/1999/xlink"
   xmlns="http://www.w3.org/2000/svg"
   xmlns:svg="http://www.w3.org/2000/svg"><defs
     id="defs1"><linearGradient
       id="linearGradient49"><stop
         style="stop-color:#fbfbfb;stop-opacity:1;"
         offset="0"
         id="stop50" /><stop
         style="stop-color:#d1d1d1;stop-opacity:1;"
         offset="1"
         id="stop51" /></linearGradient><linearGradient
       id="linearGradient48"><stop
         style="stop-color:#fcfcfc;stop-opacity:1;"
         offset="0"
         id="stop48" /><stop
         style="stop-color:#b5b5b5;stop-opacity:1;"
         offset="1"
         id="stop49" /></linearGradient><linearGradient
       id="linearGradient43"><stop
         style="stop-color:#6a4256;stop-opacity:1;"
         offset="0"
         id="stop44" /><stop
         style="stop-color:#dddddd;stop-opacity:1;"
         offset="1"
         id="stop45" /></linearGradient><linearGradient
       id="linearGradient27"><stop
         style="stop-color:#232323;stop-opacity:1;"
         offset="0"
         id="stop27" /><stop
         style="stop-color:#363636;stop-opacity:1;"
         offset="0.20991254"
         id="stop40" /><stop
         style="stop-color:#4c4c4c;stop-opacity:1;"
         offset="0.44023326"
         id="stop41" /><stop
         style="stop-color:#696969;stop-opacity:1;"
         offset="0.67346942"
         id="stop42" /><stop
         style="stop-color:#9c9c9c;stop-opacity:1;"
         offset="0.819242"
         id="stop43" /><stop
         style="stop-color:#ababab;stop-opacity:1;"
         offset="1"
         id="stop28" /></linearGradient><radialGradient
       xlink:href="#linearGradient27"
       id="radialGradient40"
       cx="320.17838"
       cy="355.27911"
       fx="320.17838"
       fy="355.27911"
       r="91.770393"
       gradientTransform="matrix(2.8718127,29.435009,-12.737097,1.2426903,5143.9161,-9703.222)"
       gradientUnits="userSpaceOnUse" /><radialGradient
       xlink:href="#linearGradient43"
       id="radialGradient45"
       cx="484.29434"
       cy="307.01361"
       fx="484.29434"
       fy="307.01361"
       r="17.287136"
       gradientTransform="matrix(7.3031639,3.9655895,-7.3992002,11.568135,1251.379,-4545.2369)"
       gradientUnits="userSpaceOnUse" /><radialGradient
       xlink:href="#linearGradient48"
       id="radialGradient49"
       cx="446.99347"
       cy="464.09821"
       fx="446.99347"
       fy="464.09821"
       r="49.752789"
       gradientTransform="matrix(2.6332519,-8.2135744,18.311365,5.8705788,-7474.9187,3153.5737)"
       gradientUnits="userSpaceOnUse" /><radialGradient
       xlink:href="#linearGradient49"
       id="radialGradient51"
       cx="418.81528"
       cy="404.23407"
       fx="418.81528"
       fy="404.23407"
       r="21.391735"
       gradientTransform="matrix(8.6253592,0,0,12.058174,-1655.0802,-3155.1353)"
       gradientUnits="userSpaceOnUse" /></defs><g
     id="layer4"
     style="display:inline"
     transform="translate(-17.041063,-21.780063)"><circle
       style="display:inline;fill:#c52333;fill-opacity:1;stroke:none;stroke-width:32.1184;stroke-linecap:round;stroke-linejoin:round;stroke-dasharray:none;stroke-opacity:1"
       id="path52"
       cx="1588.2517"
       cy="1592.9907"
       r="1545.1309" /></g><path
     style="display:inline;fill:#010101;fill-opacity:1;stroke:#870000;stroke-width:19.5598;stroke-linecap:round;stroke-linejoin:round;stroke-dasharray:19.5598, 58.6795;stroke-dashoffset:0;stroke-opacity:1"
     d="M 37.129687,1554.1786 H 3132.2597"
     id="path1" /><g
     id="layer1"
     style="display:inline"
     transform="translate(-17.041063,-21.780063)"><path
       style="display:inline;fill:url(#radialGradient40);stroke:none;stroke-width:16.2999;stroke-linecap:round;stroke-dasharray:none;stroke-opacity:1"
       d="m 2143.814,162.44216 -103.5637,215.39637 -50.5442,106.70413 -39.3119,134.78404 -22.4641,78.62411 -22.4641,78.62404 -11.232,16.84799 c -45.8288,-21.86226 -111.0682,-41.50464 -132.1466,-78.96518 l -30.3763,-59.6045 c -12.7129,-40.44603 -16.828,-67.41712 -22.8051,-97.30252 l -39.312,13.0625 c -27.4841,19.31969 -48.8073,38.46143 -65.0958,71.17759 -18.9456,41.01179 -23.6122,82.65788 -14.6765,126.53066 15.6678,44.5612 31.085,65.96082 62.9243,92.49346 32.9437,30.24507 60.4074,45.35725 106.704,61.77607 l -2.6374,154.86008 c 2.8147,63.228 17.1891,124.3257 41.9494,182.1002 25.8926,69.6587 43.7038,111.5349 64.7546,162.0571 l -1.0234,45.7349 c -20.3799,360.4802 -28.2046,396.1292 -35.6512,527.9044 l -46.7584,403.204 -2.9787,79.7722 c 8.8438,55.8376 20.8293,84.4378 44.1211,106.7042 47.0894,19.1118 80.4739,13.7204 127.6789,1.8304 48.4966,-21.6422 95.1816,-22.464 135.8075,-22.464 54.475,3.4534 73.25,8.9837 133.8852,29.228 l 102.4527,13.8696 c 59.3369,1.2106 134.712,-25.6199 146.0161,-78.6241 v -48.3725 c 45.2618,-29.8098 90.0914,-93.2415 90.8795,-109.2167 9.5822,-48.9506 9.9522,-95.1236 8.9357,-120.6982 50.0275,-47.4896 87.6391,-91.3251 118.402,-146.6983 23.3628,-49.2356 39.1811,-77.8352 56.8423,-177.4159 10.5293,-84.4089 18.383,-151.5196 18.8032,-237.8275 76.4973,49.3182 95.6143,67.595 140.0589,94.3241 49.3541,14.8175 181.3691,28.1992 226.3108,22.0052 4.3618,-0.6011 11.4567,-36.3241 11.3659,-49.258 -0.5694,-81.0383 -1.0824,-143.8289 -3.2709,-233.2395 -3.4267,-139.9789 -45.5582,-311.0071 -109.0953,-489.0787 C 2797.089,571.32915 2576.2207,269.64901 2143.814,162.44216 Z"
       id="path11" /><path
       style="display:inline;fill:url(#radialGradient45);stroke:#000000;stroke-width:14.9464;stroke-linecap:round;stroke-dasharray:none;stroke-opacity:1"
       d="m 2466.6342,967.74254 -5.637,-155.26124 c 4.724,-63.34926 40.6178,-81.26053 104.1334,-110.52928 71.0703,31.7401 128.9684,-22.31692 171.6771,-68.71175 12.6425,204.74705 -43.2856,369.41133 -270.1735,334.50227 z"
       id="path12" /><path
       style="display:inline;fill:none;stroke:#000000;stroke-width:16.2999;stroke-linecap:round;stroke-dasharray:none;stroke-opacity:1"
       d="m 2420.2271,938.37592 c 0.06,22.18483 10.2076,50.15804 13.0391,72.10068 1.7907,6.4791 7.1651,28.599 68.6575,29.5012 33.9723,4.5509 35.9991,11.7982 66.5121,10.7279 45.2685,-6.1443 58.0565,-26.0956 74.0215,-43.9838"
       id="path14" /><path
       style="display:inline;fill:none;stroke:#000000;stroke-width:16.3011;stroke-linecap:round;stroke-linejoin:round;stroke-dasharray:none;stroke-opacity:1"
       d="m 2457.6438,837.71718 c -23.6014,33.32795 -45.7283,40.22057 -43.1512,84.25543 0.4271,7.90316 9.2681,24.96407 19.9916,36.76706 18.4347,20.29041 24.322,33.99652 64.2213,38.86364"
       id="path13" /><path
       style="display:inline;fill:none;stroke:#000000;stroke-width:16.2999;stroke-linecap:round;stroke-dasharray:none;stroke-opacity:1"
       d="m 2639.7754,961.66535 -27.3559,25.21027 c -20.2766,17.46448 -48.4278,14.08548 -74.5577,16.09168 -19.6926,16.1717 -24.661,20.2592 -46.1294,19.8462 -25.2056,-3.3505 -46.005,-21.9125 -63.4004,-41.61349"
       id="path15" /><path
       style="display:inline;fill:none;fill-opacity:1;stroke:#000000;stroke-width:16.302;stroke-linecap:round;stroke-dasharray:none;stroke-opacity:1"
       d="m 2427.5342,2340.8591 c -8.7576,42.5112 -25.9725,67.8546 -59.5607,90.6944 -43.3783,41.3584 -42.1443,85.6899 -37.9023,143.4873"
       id="path18" /><path
       style="display:inline;fill:#464646;fill-opacity:1;stroke:#000000;stroke-width:32.5997;stroke-linecap:round;stroke-linejoin:round;stroke-dasharray:none;stroke-opacity:1"
       d="m 2365.605,2461.0823 c -5.8494,27.7778 -7.0462,24.6437 -8.0541,52.8675 2.2545,16.159 3.631,31.84 17.0996,33.1525 22.5526,0.4727 21.7193,-9.6036 29.0246,-27.7307 17.6298,-38.6864 4.0214,-58.4092 2.4201,-83.5477 l -6.397,-16.8713 c -13.9778,23.8592 -6.1561,0.06 -24.1934,20.807 z"
       id="path19" /><path
       style="display:inline;fill:#ffffff;fill-opacity:1;stroke:none;stroke-width:16.302;stroke-linecap:round;stroke-linejoin:round;stroke-dasharray:none;stroke-opacity:1"
       d="m 2443.3397,1801.5714 c -5.906,-35.4347 7.5864,-44.5696 27.9694,-71.5122 37.1527,-15.5294 58.7277,-12.8067 89.634,-19.9148 5.4708,50.4691 -12.6285,85.4702 -33.1522,129.8181 -25.3191,28.3563 -47.1215,29.3587 -82.9449,33.4466 4.8851,-36.0522 0.1847,-48.085 -1.5054,-71.8377 z"
       id="path25" /><path
       style="display:inline;fill:#870000;fill-opacity:1;stroke:none;stroke-width:16.2999;stroke-linecap:round;stroke-linejoin:round;stroke-dasharray:none;stroke-opacity:1"
       d="m 2448.3373,1864.2412 c -4.5027,-41.6026 -6.4754,-67.3619 0.7797,-105.4335 35.8108,-27.0255 79.4704,-22.8983 111.4241,-12.2481 -0.077,39.1018 -20.2097,61.0864 -37.3176,94.9354 -16.4666,23.7665 -38.409,21.1363 -64.7384,29.6444 z"
       id="path22" /><path
       style="display:inline;fill:#0e0e0e;fill-opacity:1;stroke:none;stroke-width:16.302;stroke-linecap:round;stroke-linejoin:round;stroke-dasharray:none;stroke-opacity:1"
       d="m 2512.128,1766.4742 c -29.2702,-20.6867 -64.5699,-10.3657 -72.9878,20.9862 l -1.176,23.9889 c 4.1774,39.0553 3.7477,43.4049 26.1815,44.4956 13.0552,0.6347 16.2488,0.2889 29.6469,-5.9542 6.5691,-3.0609 14.8306,-7.1354 21.7635,-17.9576 15.9834,-24.9502 17.1084,-51.0447 -3.4281,-65.5589 z"
       id="path23" /><path
       style="display:inline;fill:none;fill-opacity:1;stroke:#000000;stroke-width:16.302;stroke-linecap:round;stroke-linejoin:round;stroke-dasharray:none;stroke-opacity:1"
       d="m 2443.3397,1801.5714 c -5.906,-35.4347 0.7887,-51.4478 27.9694,-71.5122 32.3969,-23.9149 58.7277,-12.8067 89.634,-19.9148 5.4708,50.4691 -7.0885,88.4824 -33.1522,129.8181 -20.2758,32.1563 -47.1215,29.3587 -82.9449,33.4466 4.8851,-36.0522 0.1847,-48.085 -1.5054,-71.8377 z"
       id="path20" /><path
       style="display:inline;fill:none;fill-opacity:1;stroke:#000000;stroke-width:16.302;stroke-linecap:round;stroke-linejoin:round;stroke-dasharray:none;stroke-opacity:1"
       d="m 2403.2696,1805.2739 c 5.1904,5.9169 5.875,52.723 10.5851,66.5306 6.703,19.6502 30.1356,4.2306 30.2972,-0.1855 1.2893,-35.2363 -7.509,-116.871 -5.5105,-144.8489 7.0076,-43.5011 32.6223,-28.7318 59.6772,-53.8115"
       id="path21" /><path
       style="display:inline;fill:none;fill-opacity:1;stroke:#000000;stroke-width:16.302;stroke-linecap:round;stroke-linejoin:round;stroke-dasharray:none;stroke-opacity:1"
       d="m 2468.7271,1894.1334 c 43.9109,3.4777 63.5005,-19.4397 88.8681,-45.6443"
       id="path26" /><path
       style="display:inline;fill:none;stroke:#000000;stroke-width:16.2999;stroke-linecap:round;stroke-dasharray:none;stroke-opacity:1"
       d="m 2145.2073,157.26349 -104.957,220.57504 c -46.3588,79.64679 -64.8476,155.74456 -89.8561,241.48817 l -22.4641,78.62411 c -10.8438,34.60032 -13.6967,65.47299 -33.6961,95.47203 -45.8288,-21.86226 -107.5691,-41.94202 -132.1466,-78.96518 -35.1432,-50.6349 -41.573,-99.84869 -53.1814,-156.90702 -50.2633,13.70564 -79.1777,37.06495 -104.4078,84.24009 -18.9456,41.01179 -23.6122,82.65788 -14.6765,126.53066 6.9201,30.56492 31.085,65.96082 62.9243,92.49346 32.9437,30.24507 60.4074,45.35725 106.704,61.77607 l -2.6374,154.86008 c 2.8147,63.228 17.1891,124.3257 41.9494,182.1002 25.8926,69.6587 43.7038,111.5349 64.7546,162.0571 l -1.0234,45.7349 c -20.3799,360.4802 -28.2046,396.1292 -35.6512,527.9044 l -46.7584,403.204 -2.9787,79.7722 c -2.1095,56.4943 16.3434,90.3733 44.1211,106.7042 43.8096,25.7564 81.7379,17.9273 127.6789,1.8304 50.1191,-17.5609 95.1816,-22.464 135.8075,-22.464 54.475,3.4534 72.097,7.6316 132.4023,20.6539 l 103.9356,22.4437 c 57.656,12.4501 144.3443,-18.3957 146.0161,-78.6241 v -48.3725 c 45.2618,-29.8098 81.0611,-72.7728 90.8795,-109.2167 9.5822,-48.9506 9.9522,-95.1236 8.9357,-120.6982 50.0275,-47.4896 87.6391,-91.3251 118.402,-146.6983 23.3628,-49.2356 39.1811,-77.8352 56.8423,-177.4159 10.5293,-84.4089 18.383,-151.5196 18.8032,-237.8275 76.4973,49.3182 92.5424,73.5407 140.0589,94.3241 50.8358,22.2353 115.0035,27.3977 217.535,21.4406"
       id="path27" /><circle
       style="display:inline;fill:#ffffff;fill-opacity:1;stroke:#ffffff;stroke-width:16.2999;stroke-linecap:round;stroke-linejoin:round;stroke-dasharray:none;stroke-opacity:1"
       id="path55"
       cx="2464.1799"
       cy="1776.0115"
       r="6.311182" /><path
       style="fill:none;fill-opacity:1;stroke:#000000;stroke-width:16.2999;stroke-linecap:round;stroke-linejoin:round;stroke-dasharray:none;stroke-dashoffset:0;stroke-opacity:1"
       d="m 2963.33,1340.5267 c 5.7739,37.9238 -12.3002,70.9729 -24.7415,106.0349 -16.6255,40.7513 -33.3982,81.3953 -51.8394,121.3511 -31.7708,55.7401 -64.4006,91.2084 -125.443,117.7313 l -2.5527,-78.7966 c -4.5025,-50.9333 -17.1809,-75.7282 -22.1674,-123.7212 l -11.6336,-150.4481"
       id="path4" /><path
       style="fill:none;fill-opacity:1;stroke:#000000;stroke-width:16.2999;stroke-linecap:round;stroke-linejoin:round;stroke-dasharray:none;stroke-dashoffset:0;stroke-opacity:1"
       d="m 2796.7684,1037.0816 c 14.2538,175.0965 43.5569,179.6713 29.8942,355.2845 -6.747,103.9487 -28.5945,190.99 -63.6208,286.2942"
       id="path5" /><path
       style="fill:#ffffff;fill-opacity:1;stroke:#ffffff;stroke-width:6.51994;stroke-linecap:round;stroke-linejoin:round;stroke-dasharray:none;stroke-dashoffset:0;stroke-opacity:1"
       d="m 1372.6485,1826.8797 -97.2994,9.5393 101.1151,11.447 z"
       id="path8" /><path
       style="fill:#ffffff;fill-opacity:1;stroke:#ffffff;stroke-width:6.51994;stroke-linecap:round;stroke-linejoin:round;stroke-dasharray:none;stroke-dashoffset:0;stroke-opacity:1"
       d="m 1380.2798,1891.746 -101.1152,57.235 104.9308,-43.8802 z"
       id="path9" /><path
       style="fill:#ffffff;fill-opacity:1;stroke:#ffffff;stroke-width:6.51994;stroke-linecap:round;stroke-linejoin:round;stroke-dasharray:none;stroke-dashoffset:0;stroke-opacity:1"
       d="m 1550.7609,1800.6123 87.5155,-34.3911 -79.7368,40.3094 z"
       id="path10" /></g><g
     id="layer3"
     style="display:inline"
     transform="translate(-17.041063,-21.780063)"><path
       style="display:inline;fill:none;fill-opacity:1;stroke:#ffffff;stroke-width:42.3795;stroke-linecap:butt;stroke-linejoin:round;stroke-dasharray:none;stroke-dashoffset:0;stroke-opacity:1"
       d="m 44.543541,1577.6558 c 134.514109,165.3863 146.259129,197.2775 201.736129,239.01 37.7188,28.3739 73.03316,33.4904 124.97256,13.8983 173.58034,-65.4765 262.93066,-175.9758 494.13885,-216.3852 64.77717,-10.3087 133.43097,-15.157 178.91042,39.0653 25.397,31.049 42.2347,55.0302 78.0705,160.3695 58.6647,172.4445 122.4918,382.3007 164.3605,400.2635 13.5354,4.712 20.6681,7.5278 36.2372,-0.5495 32.1365,-16.6726 44.1521,-110.2178 105.9405,-284.3881 m 65.8253,-170.9031 c 32.103,-79.0421 48.9608,-112.1594 76.2817,-158.7222 146.2769,-228.3113 398.6221,-197.4974 654.2726,-167.2571 305.3105,47.1926 597.3933,91.5052 899.882,137.8099"
       id="path2" /></g><g
     id="layer5"
     style="display:inline"
     transform="translate(-17.041063,-21.780063)"><path
       style="display:inline;fill:url(#radialGradient51);stroke:#000000;stroke-width:16.2999;stroke-linecap:round;stroke-dasharray:none;stroke-opacity:1"
       d="m 1835.3253,1474.1263 c -51.6117,42.3165 -56.9364,96.5498 -53.5702,157.1397 l 14.2854,165.4727 c 5.1205,66.3095 22.015,115.8377 72.6175,139.2831 85.6822,42.8343 151.9129,34.8056 233.3286,26.1899 38.369,-69.3539 45.6737,-142.5646 26.1899,-215.472 -19.722,-73.7987 -75.7916,-99.1578 -124.9974,-115.4737 -49.9825,-16.5734 -69.749,-24.1171 -91.6648,-48.8085 -32.903,-37.0701 -57.855,-70.1261 -76.189,-108.3312 z"
       id="path16" /><path
       style="display:inline;fill:url(#radialGradient49);stroke:#000000;stroke-width:16.2999;stroke-linecap:round;stroke-dasharray:none;stroke-opacity:1"
       d="m 1404.3842,1720.3725 c 69.333,423.346 99.1985,520.7709 380.0551,669.5401 197.2257,61.6511 294.2747,-1.1473 457.8966,-202.0818 l 1.4472,-10.1307 c -26.9372,-90.4096 -105.1827,-138.5121 -186.6939,-167.8796 -123.5619,-44.5178 -163.3798,14.0862 -294.3214,-31.4188 -138.1367,-48.0054 -230.0794,-123.6503 -331.8013,-232.3534 z"
       id="path17" /></g><g
     id="layer2"
     style="display:inline"
     transform="translate(-17.041063,-21.780063)"><circle
       style="display:inline;fill:none;fill-opacity:1;stroke:#000000;stroke-width:52.1596;stroke-linecap:round;stroke-linejoin:round;stroke-dasharray:none;stroke-opacity:1"
       id="circle1"
       cx="1588.2517"
       cy="1592.9907"
       r="1545.1309" /></g><text
     xml:space="preserve"
     style="font-size:421.443px;line-height:2.2;font-family:'Josefin sans';-inkscape-font-specification:'Josefin sans';text-align:start;writing-mode:lr-tb;direction:ltr;text-anchor:start;fill:#ffffff;stroke-width:19.9106;stroke-linecap:square;paint-order:stroke markers fill"
     x="200.74979"
     y="1394.8033"
     id="text1"><tspan
       id="tspan1"
       x="200.74979"
       y="1394.8033"
       style="font-size:421.443px;stroke-width:19.9106"><tspan
         style="font-style:normal;font-variant:normal;font-weight:300;font-stretch:normal;font-size:421.443px;font-family:'Josefin sans';-inkscape-font-specification:'Josefin sans Light';stroke-width:19.9106"
         id="tspan2">R</tspan><tspan
         style="font-style:normal;font-variant:normal;font-weight:600;font-stretch:normal;font-size:421.443px;font-family:'Josefin sans';-inkscape-font-specification:'Josefin sans Semi-Bold';stroke-width:19.9106"
         id="tspan4">HI</tspan><tspan
         style="font-style:normal;font-variant:normal;font-weight:300;font-stretch:normal;font-size:421.443px;font-family:'Josefin sans';-inkscape-font-specification:'Josefin sans Light';stroke-width:19.9106"
         id="tspan3">NO</tspan></tspan></text></svg>
