<?xml version="1.0" encoding="UTF-8" standalone="no"?>
<!-- Created with Inkscape (http://www.inkscape.org/) -->

<svg
   version="1.1"
   id="svg1"
   width="831.43237mm"
   height="831.43237mm"
   viewBox="0 0 3142.4215 3142.4215"
   xml:space="preserve"
   xmlns:xlink="http://www.w3.org/1999/xlink"
   xmlns="http://www.w3.org/2000/svg"
   xmlns:svg="http://www.w3.org/2000/svg"><defs
     id="defs1"><linearGradient
       id="linearGradient49"><stop
         style="stop-color:#fbfbfb;stop-opacity:1;"
         offset="0"
         id="stop50" /><stop
         style="stop-color:#d1d1d1;stop-opacity:1;"
         offset="1"
         id="stop51" /></linearGradient><linearGradient
       id="linearGradient48"><stop
         style="stop-color:#fcfcfc;stop-opacity:1;"
         offset="0"
         id="stop48" /><stop
         style="stop-color:#b5b5b5;stop-opacity:1;"
         offset="1"
         id="stop49" /></linearGradient><linearGradient
       id="linearGradient43"><stop
         style="stop-color:#6a4256;stop-opacity:1;"
         offset="0"
         id="stop44" /><stop
         style="stop-color:#dddddd;stop-opacity:1;"
         offset="1"
         id="stop45" /></linearGradient><linearGradient
       id="linearGradient27"><stop
         style="stop-color:#232323;stop-opacity:1;"
         offset="0"
         id="stop27" /><stop
         style="stop-color:#363636;stop-opacity:1;"
         offset="0.20991254"
         id="stop40" /><stop
         style="stop-color:#4c4c4c;stop-opacity:1;"
         offset="0.44023326"
         id="stop41" /><stop
         style="stop-color:#696969;stop-opacity:1;"
         offset="0.67346942"
         id="stop42" /><stop
         style="stop-color:#9c9c9c;stop-opacity:1;"
         offset="0.819242"
         id="stop43" /><stop
         style="stop-color:#ababab;stop-opacity:1;"
         offset="1"
         id="stop28" /></linearGradient><radialGradient
       xlink:href="#linearGradient27"
       id="radialGradient40"
       cx="320.17838"
       cy="355.27911"
       fx="320.17838"
       fy="355.27911"
       r="91.770393"
       gradientTransform="matrix(2.8718127,29.435009,-12.737097,1.2426903,5143.9161,-9703.222)"
       gradientUnits="userSpaceOnUse" /><radialGradient
       xlink:href="#linearGradient43"
       id="radialGradient45"
       cx="484.29434"
       cy="307.01361"
       fx="484.29434"
       fy="307.01361"
       r="17.287136"
       gradientTransform="matrix(7.3031639,3.9655895,-7.3992002,11.568135,1217.8897,-4622.7137)"
       gradientUnits="userSpaceOnUse" /><radialGradient
       xlink:href="#linearGradient48"
       id="radialGradient49"
       cx="446.99347"
       cy="464.09821"
       fx="446.99347"
       fy="464.09821"
       r="49.752789"
       gradientTransform="matrix(2.6332519,-8.2135744,18.311365,5.8705788,-7474.9187,3211.5737)"
       gradientUnits="userSpaceOnUse" /><radialGradient
       xlink:href="#linearGradient49"
       id="radialGradient51"
       cx="418.81528"
       cy="404.23407"
       fx="418.81528"
       fy="404.23407"
       r="21.391735"
       gradientTransform="matrix(8.6253592,0,0,12.058174,-1655.0802,-3097.1353)"
       gradientUnits="userSpaceOnUse" /></defs><g
     id="layer4"
     style="display:inline"
     transform="translate(-17.041049,-21.780063)"><circle
       style="display:inline;fill:#c52333;fill-opacity:1;stroke:none;stroke-width:32.1184;stroke-linecap:round;stroke-linejoin:round;stroke-dasharray:none;stroke-opacity:1"
       id="path52"
       cx="1588.2517"
       cy="1592.9907"
       r="1545.1309" /></g><path
     style="display:inline;fill:#010101;fill-opacity:1;stroke:#870000;stroke-width:19.5598;stroke-linecap:round;stroke-linejoin:round;stroke-dasharray:19.5598, 58.6795;stroke-dashoffset:0;stroke-opacity:1"
     d="M 37.129701,1638.1786 H 3132.2597"
     id="path1" /><g
     id="layer1"
     style="display:inline"
     transform="translate(-17.041049,62.219936)"><path
       style="display:inline;fill:url(#radialGradient40);stroke:none;stroke-width:16.2999;stroke-linecap:round;stroke-dasharray:none;stroke-opacity:1"
       d="m 2225.8354,85.317224 c 0,0 -62.9613,53.202076 -86.5558,86.464996 -44.0897,62.15652 -99.0293,206.05631 -99.0293,206.05631 l -50.5442,106.70413 -39.3119,134.78404 -22.4641,78.62411 -22.4641,78.62404 -11.232,16.84799 c -45.8288,-21.86226 -111.0682,-41.50464 -132.1466,-78.96518 l -30.3763,-59.6045 c -12.7129,-40.44603 -16.828,-67.41712 -22.8051,-97.30252 l -39.312,13.0625 c -27.4841,19.31969 -48.8073,38.46143 -65.0958,71.17759 -18.9456,41.01179 -23.6122,82.65788 -14.6765,126.53066 15.6678,44.5612 31.085,65.96082 62.9243,92.49346 32.9437,30.24507 60.4074,45.35725 106.704,61.77607 l -2.6374,154.86008 c 2.8147,63.228 17.1891,124.3257 41.9494,182.1002 25.8926,69.6587 43.7038,111.5349 64.7546,162.0571 l -1.0234,45.7349 c -20.3799,360.4802 -28.2046,396.1292 -35.6512,527.9044 l -46.7584,403.204 -2.9787,79.7722 c 8.8438,55.8376 20.8293,84.4378 44.1211,106.7042 47.0894,19.1118 80.4739,13.7204 127.6789,1.8304 48.4966,-21.6422 95.1816,-22.464 135.8075,-22.464 54.475,3.4534 73.25,8.9837 133.8852,29.228 l 102.4527,13.8696 c 59.3369,1.2106 134.712,-25.6199 146.0161,-78.6241 v -48.3725 c 45.2618,-29.8098 90.0914,-93.2415 90.8795,-109.2167 9.5822,-48.9506 9.9522,-95.1236 8.9357,-120.6982 50.0275,-47.4896 87.6391,-91.3251 118.402,-146.6983 23.3628,-49.2356 39.1811,-77.8352 56.8423,-177.4159 10.5293,-84.4089 18.383,-151.5196 18.8032,-237.8275 76.4973,49.3182 95.6143,67.595 140.0589,94.3241 49.3541,14.8175 181.3691,28.1992 226.3108,22.0052 4.3618,-0.6011 11.4567,-36.3241 11.3659,-49.258 -0.5694,-81.0383 -1.0824,-143.8289 -3.2709,-233.2395 -3.4267,-139.9789 -41.2859,-388.7981 -83.3573,-566.86962 C 2794.7564,511.70156 2577.3327,291.59678 2225.8354,85.317224 Z"
       id="path11" /><path
       style="display:inline;fill:url(#radialGradient45);stroke:#000000;stroke-width:14.9464;stroke-linecap:round;stroke-dasharray:none;stroke-opacity:1"
       d="m 2433.1449,890.2657 -5.637,-155.26124 c 4.724,-63.34926 40.6178,-81.26053 104.1334,-110.52928 71.0703,31.7401 128.9684,-22.31692 171.6771,-68.71175 12.6425,204.74705 -43.2856,369.41133 -270.1735,334.50227 z"
       id="path12" /><path
       style="display:inline;fill:none;stroke:#000000;stroke-width:16.2999;stroke-linecap:round;stroke-dasharray:none;stroke-opacity:1"
       d="m 2386.7378,860.89908 c 0.06,22.18483 10.2076,50.15804 13.0391,72.10068 1.7907,6.4791 7.1651,28.599 68.6575,29.5012 33.9723,4.5509 35.9991,11.7982 66.5121,10.7279 45.2685,-6.1443 58.0565,-26.0956 74.0215,-43.9838"
       id="path14" /><path
       style="display:inline;fill:none;stroke:#000000;stroke-width:16.3011;stroke-linecap:round;stroke-linejoin:round;stroke-dasharray:none;stroke-opacity:1"
       d="m 2424.1545,760.24034 c -23.6014,33.32795 -45.7283,40.22057 -43.1512,84.25543 0.4271,7.90316 9.2681,24.96407 19.9916,36.76706 18.4347,20.29041 24.322,33.99652 64.2213,38.86364"
       id="path13" /><path
       style="display:inline;fill:none;stroke:#000000;stroke-width:16.2999;stroke-linecap:round;stroke-dasharray:none;stroke-opacity:1"
       d="m 2606.2861,884.18851 -27.3559,25.21027 c -20.2766,17.46448 -48.4278,14.08548 -74.5577,16.09168 -19.6926,16.1717 -24.661,20.2592 -46.1294,19.8462 -25.2056,-3.3505 -46.005,-21.9125 -63.4004,-41.61349"
       id="path15" /><path
       style="display:inline;fill:none;fill-opacity:1;stroke:#000000;stroke-width:16.302;stroke-linecap:round;stroke-dasharray:none;stroke-opacity:1"
       d="m 2427.5342,2340.8591 c -8.7576,42.5112 -25.9725,67.8546 -59.5607,90.6944 -43.3783,41.3584 -42.1443,85.6899 -37.9023,143.4873"
       id="path18" /><path
       style="display:inline;fill:#464646;fill-opacity:1;stroke:#000000;stroke-width:32.5997;stroke-linecap:round;stroke-linejoin:round;stroke-dasharray:none;stroke-opacity:1"
       d="m 2365.605,2461.0823 c -5.8494,27.7778 -7.0462,24.6437 -8.0541,52.8675 2.2545,16.159 3.631,31.84 17.0996,33.1525 22.5526,0.4727 21.7193,-9.6036 29.0246,-27.7307 17.6298,-38.6864 4.0214,-58.4092 2.4201,-83.5477 l -6.397,-16.8713 c -13.9778,23.8592 -6.1561,0.06 -24.1934,20.807 z"
       id="path19" /><path
       style="display:inline;fill:#ffffff;fill-opacity:1;stroke:none;stroke-width:16.302;stroke-linecap:round;stroke-linejoin:round;stroke-dasharray:none;stroke-opacity:1"
       d="m 2443.3397,1801.5714 c -5.906,-35.4347 7.5864,-44.5696 27.9694,-71.5122 37.1527,-15.5294 58.7277,-12.8067 89.634,-19.9148 5.4708,50.4691 -12.6285,85.4702 -33.1522,129.8181 -25.3191,28.3563 -47.1215,29.3587 -82.9449,33.4466 4.8851,-36.0522 0.1847,-48.085 -1.5054,-71.8377 z"
       id="path25" /><path
       style="display:inline;fill:#870000;fill-opacity:1;stroke:none;stroke-width:16.2999;stroke-linecap:round;stroke-linejoin:round;stroke-dasharray:none;stroke-opacity:1"
       d="m 2448.3373,1864.2412 c -4.5027,-41.6026 -6.4754,-67.3619 0.7797,-105.4335 35.8108,-27.0255 79.4704,-22.8983 111.4241,-12.2481 -0.077,39.1018 -20.2097,61.0864 -37.3176,94.9354 -16.4666,23.7665 -38.409,21.1363 -64.7384,29.6444 z"
       id="path22" /><path
       style="display:inline;fill:#0e0e0e;fill-opacity:1;stroke:none;stroke-width:16.302;stroke-linecap:round;stroke-linejoin:round;stroke-dasharray:none;stroke-opacity:1"
       d="m 2512.128,1766.4742 c -29.2702,-20.6867 -64.5699,-10.3657 -72.9878,20.9862 l -1.176,23.9889 c 4.1774,39.0553 3.7477,43.4049 26.1815,44.4956 13.0552,0.6347 16.2488,0.2889 29.6469,-5.9542 6.5691,-3.0609 14.8306,-7.1354 21.7635,-17.9576 15.9834,-24.9502 17.1084,-51.0447 -3.4281,-65.5589 z"
       id="path23" /><path
       style="display:inline;fill:none;fill-opacity:1;stroke:#000000;stroke-width:16.302;stroke-linecap:round;stroke-linejoin:round;stroke-dasharray:none;stroke-opacity:1"
       d="m 2443.3397,1801.5714 c -5.906,-35.4347 0.7887,-51.4478 27.9694,-71.5122 32.3969,-23.9149 58.7277,-12.8067 89.634,-19.9148 5.4708,50.4691 -7.0885,88.4824 -33.1522,129.8181 -20.2758,32.1563 -47.1215,29.3587 -82.9449,33.4466 4.8851,-36.0522 0.1847,-48.085 -1.5054,-71.8377 z"
       id="path20" /><path
       style="display:inline;fill:none;fill-opacity:1;stroke:#000000;stroke-width:16.302;stroke-linecap:round;stroke-linejoin:round;stroke-dasharray:none;stroke-opacity:1"
       d="m 2403.2696,1805.2739 c 5.1904,5.9169 5.875,52.723 10.5851,66.5306 6.703,19.6502 30.1356,4.2306 30.2972,-0.1855 1.2893,-35.2363 -7.509,-116.871 -5.5105,-144.8489 7.0076,-43.5011 32.6223,-28.7318 59.6772,-53.8115"
       id="path21" /><path
       style="display:inline;fill:none;fill-opacity:1;stroke:#000000;stroke-width:16.302;stroke-linecap:round;stroke-linejoin:round;stroke-dasharray:none;stroke-opacity:1"
       d="m 2468.7271,1894.1334 c 43.9109,3.4777 63.5005,-19.4397 88.8681,-45.6443"
       id="path26" /><path
       style="display:inline;fill:none;stroke:#000000;stroke-width:16.2999;stroke-linecap:round;stroke-dasharray:none;stroke-opacity:1"
       d="m 2198.5315,100.86806 c 0,0 -41.2275,46.85307 -57.8258,73.12386 -40.4617,64.04027 -100.4554,203.84661 -100.4554,203.84661 -46.3588,79.64679 -64.8476,155.74456 -89.8561,241.48817 l -22.4641,78.62411 c -10.8438,34.60032 -13.6967,65.47299 -33.6961,95.47203 -45.8288,-21.86226 -107.5691,-41.94202 -132.1466,-78.96518 -35.1432,-50.6349 -41.573,-99.84869 -53.1814,-156.90702 -50.2633,13.70564 -79.1777,37.06495 -104.4078,84.24009 -18.9456,41.01179 -23.6122,82.65788 -14.6765,126.53066 6.9201,30.56492 31.085,65.96082 62.9243,92.49346 32.9437,30.24507 60.4074,45.35725 106.704,61.77607 l -2.6374,154.86008 c 2.8147,63.228 17.1891,124.3257 41.9494,182.1002 25.8926,69.6587 43.7038,111.5349 64.7546,162.0571 l -1.0234,45.7349 c -20.3799,360.4802 -28.2046,396.1292 -35.6512,527.9044 l -46.7584,403.204 -2.9787,79.7722 c -2.1095,56.4943 16.3434,90.3733 44.1211,106.7042 43.8096,25.7564 81.7379,17.9273 127.6789,1.8304 50.1191,-17.5609 95.1816,-22.464 135.8075,-22.464 54.475,3.4534 72.097,7.6316 132.4023,20.6539 l 103.9356,22.4437 c 57.656,12.4501 144.3443,-18.3957 146.0161,-78.6241 v -48.3725 c 45.2618,-29.8098 81.0611,-72.7728 90.8795,-109.2167 9.5822,-48.9506 9.9522,-95.1236 8.9357,-120.6982 50.0275,-47.4896 87.6391,-91.3251 118.402,-146.6983 23.3628,-49.2356 39.1811,-77.8352 56.8423,-177.4159 10.5293,-84.4089 18.383,-151.5196 18.8032,-237.8275 76.4973,49.3182 92.5424,73.5407 140.0589,94.3241 50.8358,22.2353 115.0035,27.3977 217.535,21.4406"
       id="path27" /><circle
       style="display:inline;fill:#ffffff;fill-opacity:1;stroke:#ffffff;stroke-width:16.2999;stroke-linecap:round;stroke-linejoin:round;stroke-dasharray:none;stroke-opacity:1"
       id="path55"
       cx="2464.1799"
       cy="1776.0115"
       r="6.311182" /><path
       style="fill:none;fill-opacity:1;stroke:#000000;stroke-width:16.2999;stroke-linecap:round;stroke-linejoin:round;stroke-dasharray:none;stroke-dashoffset:0;stroke-opacity:1"
       d="m 2963.33,1340.5267 c 5.7739,37.9238 -12.3002,70.9729 -24.7415,106.0349 -16.6255,40.7513 -33.3982,81.3953 -51.8394,121.3511 -31.7708,55.7401 -64.4006,91.2084 -125.443,117.7313 l -2.5527,-78.7966 c -4.5025,-50.9333 -17.1809,-75.7282 -22.1674,-123.7212 l -11.6336,-150.4481"
       id="path4" /><path
       style="fill:none;fill-opacity:1;stroke:#000000;stroke-width:16.2999;stroke-linecap:round;stroke-linejoin:round;stroke-dasharray:none;stroke-dashoffset:0;stroke-opacity:1"
       d="m 2796.7684,1037.0816 c 14.2538,175.0965 43.5569,179.6713 29.8942,355.2845 -6.747,103.9487 -28.5945,190.99 -63.6208,286.2942"
       id="path5" /></g><g
     id="layer3"
     style="display:inline"
     transform="translate(-17.041049,4.2199366)"><path
       style="display:inline;fill:none;fill-opacity:1;stroke:#ffffff;stroke-width:42.3795;stroke-linecap:butt;stroke-linejoin:round;stroke-dasharray:none;stroke-dashoffset:0;stroke-opacity:1"
       d="m 44.543541,1635.6558 c 134.514109,165.3863 146.259129,197.2775 201.736129,239.01 37.7188,28.3739 73.03316,33.4904 124.97256,13.8983 173.58034,-65.4765 258.12428,-169.051 494.13885,-216.3852 65.02887,-13.042 122.93401,-18.138 178.91042,39.0653 29.5046,30.1512 42.2347,55.0302 78.0705,160.3695 58.6647,172.4445 122.4918,382.3007 164.3605,400.2635 13.5354,4.712 20.6681,7.5278 36.2372,-0.5495 32.1365,-16.6726 44.1521,-110.2178 105.9405,-284.3881 m 65.8253,-170.9031 c 32.103,-79.0421 48.9608,-112.1594 76.2817,-158.7222 146.2769,-228.3113 398.6221,-197.4974 654.2726,-167.2571 305.3105,47.1926 597.3933,91.5052 899.882,137.8099"
       id="path2" /><path
       style="display:inline;fill:#ffffff;fill-opacity:1;stroke:#ffffff;stroke-width:6.51994;stroke-linecap:round;stroke-linejoin:round;stroke-dasharray:none;stroke-dashoffset:0;stroke-opacity:1"
       d="m 1372.6485,1884.8797 -97.2994,9.5393 101.1151,11.447 z"
       id="path8" /><path
       style="display:inline;fill:#ffffff;fill-opacity:1;stroke:#ffffff;stroke-width:6.51994;stroke-linecap:round;stroke-linejoin:round;stroke-dasharray:none;stroke-dashoffset:0;stroke-opacity:1"
       d="m 1380.2798,1949.746 -101.1152,57.235 104.9308,-43.8802 z"
       id="path9" /><path
       style="display:inline;fill:#ffffff;fill-opacity:1;stroke:#ffffff;stroke-width:6.51994;stroke-linecap:round;stroke-linejoin:round;stroke-dasharray:none;stroke-dashoffset:0;stroke-opacity:1"
       d="m 1550.7609,1858.6123 87.5155,-34.3911 -79.7368,40.3094 z"
       id="path10" /></g><g
     id="layer5"
     style="display:inline"
     transform="translate(-17.041049,4.2199366)"><path
       style="display:inline;fill:url(#radialGradient51);stroke:#000000;stroke-width:16.2999;stroke-linecap:round;stroke-dasharray:none;stroke-opacity:1"
       d="m 1835.3253,1532.1263 c -51.6117,42.3165 -56.9364,96.5498 -53.5702,157.1397 l 14.2854,165.4727 c 5.1205,66.3095 22.015,115.8377 72.6175,139.2831 85.6822,42.8343 151.9129,34.8056 233.3286,26.1899 38.369,-69.3539 45.6737,-142.5646 26.1899,-215.472 -19.722,-73.7987 -75.7916,-99.1578 -124.9974,-115.4737 -49.9825,-16.5734 -69.749,-24.1171 -91.6648,-48.8085 -32.903,-37.0701 -57.855,-70.1261 -76.189,-108.3312 z"
       id="path16" /><path
       style="display:inline;fill:url(#radialGradient49);stroke:#000000;stroke-width:16.2999;stroke-linecap:round;stroke-dasharray:none;stroke-opacity:1"
       d="m 1404.3842,1778.3725 c 69.333,423.346 99.1985,520.7709 380.0551,669.5401 197.2257,61.6511 294.2747,-1.1473 457.8966,-202.0818 l 1.4472,-10.1307 c -26.9372,-90.4096 -105.1827,-138.5121 -186.6939,-167.8796 -123.5619,-44.5178 -163.3798,14.0862 -294.3214,-31.4188 -138.1367,-48.0054 -230.0794,-123.6503 -331.8013,-232.3534 z"
       id="path17" /></g><g
     id="text1"
     style="font-size:453.333px;line-height:2.2;font-family:'Josefin sans';-inkscape-font-specification:'Josefin sans';display:none;fill:#ffffff;stroke-width:19.9106;stroke-linecap:square;paint-order:stroke markers fill"
     aria-label="RHINO"
     transform="translate(-33.250423,-0.80880204)"><path
       style="font-weight:300;-inkscape-font-specification:'Josefin sans Light'"
       d="m 1254.3029,1510.0865 -253.8665,-286.0531 5.8934,-4.5333 0.4533,282.8798 h -21.75998 v -328.6664 h 1.36 l 253.86648,288.3197 -5.8933,1.8134 -0.4534,-283.3332 h 21.3067 v 329.5731 z M 1337.2631,1341.9 q 0,-34 12.6933,-63.4666 12.6933,-29.92 35.36,-52.5867 22.6666,-23.1199 52.1333,-35.8133 29.92,-13.1466 63.9199,-13.1466 34,0 63.92,13.1466 29.92,12.6934 52.5866,35.8133 22.6667,22.6667 35.36,52.5867 13.1467,29.4666 13.1467,63.4666 0,34 -13.1467,63.92 -12.6933,29.4666 -35.36,52.1332 -22.6666,22.6667 -52.5866,35.36 -29.92,12.6933 -63.92,12.6933 -33.9999,0 -63.9199,-12.2399 -29.4667,-12.24 -52.1333,-34.4534 -22.6667,-22.2133 -35.36,-52.1332 -12.6933,-29.92 -12.6933,-65.28 z m 22.6666,0.4533 q 0,29.4667 10.88,55.3067 10.88,25.8399 30.3733,45.3333 19.4934,19.4933 44.88,30.8266 25.84,10.88 54.8533,10.88 29.92,0 55.76,-10.88 25.8399,-11.3333 45.3333,-30.8266 19.4933,-19.4934 30.3733,-45.3333 11.3333,-25.84 11.3333,-55.76 0,-29.4666 -11.3333,-55.3066 -10.88,-26.2933 -30.3733,-45.7867 -19.4934,-19.9466 -45.3333,-31.2799 -25.84,-11.3334 -55.3067,-11.3334 -29.9199,0 -55.7599,11.7867 -25.84,11.3333 -45.3333,31.28 -19.04,19.9466 -29.92,46.2399 -10.4267,25.84 -10.4267,54.8533 z"
       id="path24" /><path
       style="font-weight:600;font-size:453.333px;line-height:2.2;font-family:'Josefin sans';-inkscape-font-specification:'Josefin sans Semi-Bold';display:none;fill:#ffffff;stroke-width:19.9106;stroke-linecap:square;paint-order:stroke markers fill"
       d="m 786.30363,1172.3535 v 330.0264 H 733.717 V 1361.8467 H 571.42378 v 140.5332 h -53.03996 v -330.0264 h 53.03996 v 139.1732 H 733.717 v -139.1732 z m 57.11987,149.1378 53.03996,-46.9405 v 284.8238 H 843.4235 Z"
       id="path7" /><path
       style="font-weight:300;font-size:453.333px;line-height:2.2;font-family:'Josefin sans';-inkscape-font-specification:'Josefin sans Light';display:none;fill:#ffffff;stroke-width:19.9106;stroke-linecap:square;paint-order:stroke markers fill"
       d="m 310.75757,1180.5134 c 12.08888,0 24.02665,1.8133 35.8133,5.44 12.08888,3.3245 22.96887,8.7645 32.63998,16.32 9.97333,7.2533 17.98221,16.6222 24.02665,28.1067 6.04444,11.4844 9.06666,25.2355 9.06666,41.2533 0,12.0889 -1.81333,23.8755 -5.44,35.36 -3.62666,11.1822 -9.51999,21.3066 -17.67998,30.3733 -8.16,9.0667 -18.73777,16.32 -31.73331,21.76 -12.99555,5.4399 -29.01331,8.1599 -48.0533,8.1599 h -49.86663 v 135.0933 h -22.21332 v -321.8665 z m -2.72,165.4666 c 16.01777,0 29.31553,-2.2667 39.8933,-6.8 10.57777,-4.5333 18.88888,-10.4267 24.93332,-17.68 6.04444,-7.2533 10.27555,-15.1111 12.69332,-23.5733 2.72,-8.7645 4.08,-17.2267 4.08,-25.3867 0,-9.6711 -1.81333,-18.7377 -5.44,-27.1999 -3.32444,-8.4623 -8.3111,-15.8667 -14.95999,-22.2133 -6.64888,-6.6489 -14.65776,-11.7867 -24.02665,-15.4134 -9.36888,-3.9289 -19.79554,-5.8933 -31.27997,-5.8933 H 259.53094 V 1345.98 Z m 46.23996,9.9733 89.30661,146.4266 h -25.83998 l -89.75994,-145.9732 z"
       id="path6" /></g><g
     id="text1-84"
     style="font-size:453.333px;line-height:2.2;font-family:'Josefin sans';-inkscape-font-specification:'Josefin sans';display:inline;fill:#ffffff;stroke-width:19.9106;stroke-linecap:square;paint-order:stroke markers fill"
     aria-label="RHINO"
     transform="translate(-33.128409,-1.0740963)"><path
       style="font-weight:300;font-size:453.333px;line-height:2.2;font-family:'Josefin sans';-inkscape-font-specification:'Josefin sans Light';display:inline;fill:#ffffff;stroke-width:19.9106;stroke-linecap:square;paint-order:stroke markers fill"
       d="m 1254.3029,1510.0865 -253.8665,-286.0531 5.8934,-4.5333 0.4533,282.8798 h -21.75998 v -328.6664 h 1.36 l 253.86648,288.3197 -5.8933,1.8134 -0.4534,-283.3332 h 21.3067 v 329.5731 z M 1337.2631,1341.9 q 0,-34 12.6933,-63.4666 12.6933,-29.92 35.36,-52.5867 22.6666,-23.1199 52.1333,-35.8133 29.92,-13.1466 63.9199,-13.1466 34,0 63.92,13.1466 29.92,12.6934 52.5866,35.8133 22.6667,22.6667 35.36,52.5867 13.1467,29.4666 13.1467,63.4666 0,34 -13.1467,63.92 -12.6933,29.4666 -35.36,52.1332 -22.6666,22.6667 -52.5866,35.36 -29.92,12.6933 -63.92,12.6933 -33.9999,0 -63.9199,-12.2399 -29.4667,-12.24 -52.1333,-34.4534 -22.6667,-22.2133 -35.36,-52.1332 -12.6933,-29.92 -12.6933,-65.28 z m 22.6666,0.4533 q 0,29.4667 10.88,55.3067 10.88,25.8399 30.3733,45.3333 19.4934,19.4933 44.88,30.8266 25.84,10.88 54.8533,10.88 29.92,0 55.76,-10.88 25.8399,-11.3333 45.3333,-30.8266 19.4933,-19.4934 30.3733,-45.3333 11.3333,-25.84 11.3333,-55.76 0,-29.4666 -11.3333,-55.3066 -10.88,-26.2933 -30.3733,-45.7867 -19.4934,-19.9466 -45.3333,-31.2799 -25.84,-11.3334 -55.3067,-11.3334 -29.9199,0 -55.7599,11.7867 -25.84,11.3333 -45.3333,31.28 -19.04,19.9466 -29.92,46.2399 -10.4267,25.84 -10.4267,54.8533 z"
       id="path24-9" /><path
       style="font-weight:600;-inkscape-font-specification:'Josefin sans Semi-Bold'"
       d="m 786.30363,1172.3535 v 330.0264 H 733.717 V 1361.8467 H 571.42378 v 140.5332 h -53.03996 v -330.0264 h 53.03996 v 139.1732 H 733.717 v -139.1732 z m 57.11987,188.1038 c 1.49723,-55.684 53.03996,-85.9065 53.03996,-85.9065 v 284.8238 H 843.4235 c 0,0 0.0751,0 0,-198.9173 z"
       id="path7-0" /><path
       style="font-weight:300;font-size:453.333px;line-height:2.2;font-family:'Josefin sans';-inkscape-font-specification:'Josefin sans Light';display:inline;fill:#ffffff;stroke-width:19.9106;stroke-linecap:square;paint-order:stroke markers fill"
       d="m 310.75757,1180.5134 c 12.08888,0 24.02665,1.8133 35.8133,5.44 12.08888,3.3245 22.96887,8.7645 32.63998,16.32 9.97333,7.2533 17.98221,16.6222 24.02665,28.1067 6.04444,11.4844 9.06666,25.2355 9.06666,41.2533 0,12.0889 -1.81333,23.8755 -5.44,35.36 -3.62666,11.1822 -9.51999,21.3066 -17.67998,30.3733 -8.16,9.0667 -18.73777,16.32 -31.73331,21.76 -12.99555,5.4399 -29.01331,8.1599 -48.0533,8.1599 h -49.86663 v 135.0933 h -22.21332 v -321.8665 z m -2.72,165.4666 c 16.01777,0 29.31553,-2.2667 39.8933,-6.8 10.57777,-4.5333 18.88888,-10.4267 24.93332,-17.68 6.04444,-7.2533 10.27555,-15.1111 12.69332,-23.5733 2.72,-8.7645 4.08,-17.2267 4.08,-25.3867 0,-9.6711 -1.81333,-18.7377 -5.44,-27.1999 -3.32444,-8.4623 -8.3111,-15.8667 -14.95999,-22.2133 -6.64888,-6.6489 -14.65776,-11.7867 -24.02665,-15.4134 -9.36888,-3.9289 -19.79554,-5.8933 -31.27997,-5.8933 H 259.53094 V 1345.98 Z m 46.23996,9.9733 89.30661,146.4266 h -25.83998 l -89.75994,-145.9732 z"
       id="path6-0" /></g><g
     id="layer6"
     style="display:none"><text
       xml:space="preserve"
       style="font-size:453.333px;line-height:2.2;font-family:'Josefin sans';-inkscape-font-specification:'Josefin sans';text-align:start;writing-mode:lr-tb;direction:ltr;text-anchor:start;display:inline;fill:#ffffff;stroke-width:19.9106;stroke-linecap:square;paint-order:stroke markers fill"
       x="149.24728"
       y="1498.9056"
       id="text1-8"
       transform="translate(-17.041051,4.2199354)"><tspan
         id="tspan1"
         x="149.24728"
         y="1498.9056"
         style="font-size:453.333px;stroke-width:19.9106"><tspan
           style="font-style:normal;font-variant:normal;font-weight:300;font-stretch:normal;font-size:453.333px;font-family:'Josefin sans';-inkscape-font-specification:'Josefin sans Light';stroke-width:19.9106"
           id="tspan2">R</tspan><tspan
           style="font-style:normal;font-variant:normal;font-weight:600;font-stretch:normal;font-size:453.333px;font-family:'Josefin sans';-inkscape-font-specification:'Josefin sans Semi-Bold';stroke-width:19.9106"
           id="tspan4">HI</tspan><tspan
           style="font-style:normal;font-variant:normal;font-weight:300;font-stretch:normal;font-size:453.333px;font-family:'Josefin sans';-inkscape-font-specification:'Josefin sans Light';stroke-width:19.9106"
           id="tspan3">NO</tspan></tspan></text></g><g
     id="layer7"
     style="display:none"><g
       id="text1-0"
       style="font-size:453.333px;line-height:2.2;font-family:'Josefin sans';-inkscape-font-specification:'Josefin sans';fill:#ffffff;stroke-width:19.9106;stroke-linecap:square;paint-order:stroke markers fill"
       aria-label="RHINO"
       transform="translate(-33.41486,-0.65903499)"><path
         style="font-weight:300;-inkscape-font-specification:'Josefin sans Light'"
         d="m 310.75757,1180.5134 c 12.08888,0 24.02665,1.8133 35.8133,5.44 12.08888,3.3245 22.96887,8.7645 32.63998,16.32 9.97333,7.2533 17.98221,16.6222 24.02665,28.1067 6.04444,11.4844 9.06666,25.2355 9.06666,41.2533 0,12.0889 -1.81333,23.8755 -5.44,35.36 -3.62666,11.1822 -9.51999,21.3066 -17.67998,30.3733 -8.16,9.0667 -18.73777,16.32 -31.73331,21.76 -12.99555,5.4399 -29.01331,8.1599 -48.0533,8.1599 h -49.86663 v 135.0933 h -22.21332 v -321.8665 z m -2.72,165.4666 c 16.01777,0 29.31553,-2.2667 39.8933,-6.8 10.57777,-4.5333 18.88888,-10.4267 24.93332,-17.68 6.04444,-7.2533 10.27555,-15.1111 12.69332,-23.5733 2.72,-8.7645 4.08,-17.2267 4.08,-25.3867 0,-9.6711 -1.81333,-18.7377 -5.44,-27.1999 -3.32444,-8.4623 -8.3111,-15.8667 -14.95999,-22.2133 -6.64888,-6.6489 -14.65776,-11.7867 -24.02665,-15.4134 -9.36888,-3.9289 -19.79554,-5.8933 -31.27997,-5.8933 H 259.53094 V 1345.98 Z m 46.23996,9.9733 89.30661,146.4266 h -25.83998 l -89.75994,-145.9732 z"
         id="path6-4" /><path
         style="font-weight:600;-inkscape-font-specification:'Josefin sans Semi-Bold'"
         d="m 786.30363,1172.3535 v 330.0264 H 733.717 V 1361.8467 H 571.42378 v 140.5332 h -53.03996 v -330.0264 h 53.03996 v 139.1732 H 733.717 v -139.1732 z m 57.11987,102.1973 h 53.03996 v 284.8238 H 843.4235 Z"
         id="path7-6" /><path
         style="font-weight:300;-inkscape-font-specification:'Josefin sans Light'"
         d="m 1254.3029,1510.0865 -253.8665,-286.0531 5.8934,-4.5333 0.4533,282.8798 h -21.75998 v -328.6664 h 1.36 l 253.86648,288.3197 -5.8933,1.8134 -0.4534,-283.3332 h 21.3067 v 329.5731 z M 1337.2631,1341.9 q 0,-34 12.6933,-63.4666 12.6933,-29.92 35.36,-52.5867 22.6666,-23.1199 52.1333,-35.8133 29.92,-13.1466 63.9199,-13.1466 34,0 63.92,13.1466 29.92,12.6934 52.5866,35.8133 22.6667,22.6667 35.36,52.5867 13.1467,29.4666 13.1467,63.4666 0,34 -13.1467,63.92 -12.6933,29.4666 -35.36,52.1332 -22.6666,22.6667 -52.5866,35.36 -29.92,12.6933 -63.92,12.6933 -33.9999,0 -63.9199,-12.2399 -29.4667,-12.24 -52.1333,-34.4534 -22.6667,-22.2133 -35.36,-52.1332 -12.6933,-29.92 -12.6933,-65.28 z m 22.6666,0.4533 q 0,29.4667 10.88,55.3067 10.88,25.8399 30.3733,45.3333 19.4934,19.4933 44.88,30.8266 25.84,10.88 54.8533,10.88 29.92,0 55.76,-10.88 25.8399,-11.3333 45.3333,-30.8266 19.4933,-19.4934 30.3733,-45.3333 11.3333,-25.84 11.3333,-55.76 0,-29.4666 -11.3333,-55.3066 -10.88,-26.2933 -30.3733,-45.7867 -19.4934,-19.9466 -45.3333,-31.2799 -25.84,-11.3334 -55.3067,-11.3334 -29.9199,0 -55.7599,11.7867 -25.84,11.3333 -45.3333,31.28 -19.04,19.9466 -29.92,46.2399 -10.4267,25.84 -10.4267,54.8533 z"
         id="path24-4" /></g></g><g
     id="text29"
     style="font-size:466.667px;line-height:2.2;font-family:'Arno Pro';-inkscape-font-specification:'Arno Pro';display:none;fill:#ffffff;stroke-width:18.8976;stroke-linecap:square;paint-order:stroke markers fill"
     aria-label="RHINO"
     transform="matrix(0.7559142,-0.7559142,0.7559142,0.7559142,-586.25632,781.06482)"><path
       style="font-weight:300;font-family:'Josefin sans';-inkscape-font-specification:'Josefin sans Light'"
       d="m 158.08592,868.11562 c 13.07679,-8.68907 27.16139,-15.51408 42.10569,-20.40031 15.11404,-5.35772 30.08258,-7.77715 44.72024,-7.30508 14.81613,0.008 28.46233,3.40229 40.85999,10.04139 12.41317,6.64742 22.44466,17.29506 30.35028,31.77533 5.9642,10.9243 9.83303,22.63309 11.7683,35.06784 1.78525,12.16458 0.78972,24.63609 -2.81223,37.45306 -3.60304,12.82084 -10.34757,25.39055 -20.13353,37.90742 -9.80052,12.53553 -23.68312,24.53263 -41.72058,36.54233 -15.73904,10.4794 -31.26207,21.2875 -46.55654,32.408 l 81.81978,112.4864 c -6.13112,4.4478 -12.22467,8.9515 -18.27952,13.5098 L 80.449915,923.25639 c 25.266715,-19.14994 51.158745,-37.54754 77.636005,-55.14077 z m 91.66853,143.68978 c 15.40685,-10.2842 27.08991,-20.44883 35.0844,-30.90535 7.98394,-10.44271 13.1884,-20.62012 15.51579,-30.67457 2.32603,-10.04863 2.62692,-19.56527 0.78562,-28.56193 -1.68299,-9.44748 -4.56193,-17.8294 -8.73348,-25.12616 -4.94233,-8.645 -11.50321,-15.65479 -19.7725,-20.94182 -7.94288,-5.47469 -17.19336,-8.92163 -27.76139,-10.24319 -10.72297,-1.58844 -22.19684,-0.8415 -34.32512,2.31207 -12.28949,2.88859 -24.6639,8.38036 -36.93405,16.48548 -19.37212,12.79637 -38.43143,26.02966 -57.16163,39.67873 l 87.31102,120.03584 c 15.11219,-10.9915 30.44648,-21.6828 45.99134,-32.0591 z m 50.38433,-20.04404 c 55.3733,25.02404 108.15341,53.13964 157.85971,84.12524 -7.76796,3.9794 -15.49751,8.0508 -23.1869,12.2118 -50.50648,-29.6267 -103.98902,-56.3351 -159.963,-79.9031 8.36811,-5.5707 16.79875,-11.04949 25.29019,-16.43394 z"
       id="path3" /><path
       style="font-weight:600;font-family:'Josefin sans';-inkscape-font-specification:'Josefin sans Semi-Bold'"
       d="m 732.66728,634.1467 51.00058,335.88161 c -17.33458,2.63407 -34.60515,5.70526 -51.78594,9.20894 L 702.97758,837.48516 c -35.65765,7.27096 -70.98054,16.18131 -105.81279,26.70295 -24.15553,7.28936 -48.07146,15.35515 -71.71807,24.15882 l 50.45376,135.50057 c -16.63724,6.1876 -33.14903,12.8097 -49.52027,19.8467 L 392.468,731.64697 c 21.4054,-9.17395 43.05961,-17.84955 64.94753,-26.0072 l 49.9655,134.18925 c 24.64969,-9.18002 49.5946,-17.6022 74.80503,-25.22798 36.36219,-10.98406 73.22812,-20.28417 110.44192,-27.87222 L 664.00337,646.34856 c 22.78091,-4.64481 45.67747,-8.71364 68.66391,-12.20186 z M 852.8328,621.26791 c 23.42083,-1.47477 46.88771,-2.35067 70.37422,-2.62296 l 3.93547,339.67136 c -17.64282,0.20425 -35.29234,0.86614 -52.92213,1.98092 z"
       id="path6-8" /><path
       style="font-weight:300;font-family:'Josefin sans';-inkscape-font-specification:'Josefin sans Light'"
       d="M 1283.3549,1025.9042 C 1236.8357,905.277 1164.565,786.25354 1066.6532,678.00255 c 2.6478,-1.3025 5.3036,-2.59703 7.9674,-3.88352 -3e-4,0.003 -29.675,289.65486 -29.6753,289.65805 -7.2032,-0.7514 -14.4121,-1.42596 -21.6249,-2.02312 l 28.0252,-337.15044 c 0.5997,0.05 1.1994,0.10041 1.799,0.1512 103.5999,108.05714 181.2665,227.7107 232.9107,349.72631 -2.1373,-0.0684 -4.2732,-0.13031 -6.4075,-0.18569 30.5913,-92.28903 61.1429,-184.59127 91.6548,-276.9067 8.8731,2.95296 17.7163,5.99591 26.5281,9.12833 l -113.6261,319.68883 c -0.2832,-0.1007 -0.5665,-0.2012 -0.8497,-0.3016 z m 147.0997,-127.53292 c 9.5052,-21.3116 22.8673,-39.20984 40.7246,-53.27029 17.9686,-14.32819 39.0003,-24.38989 63.1629,-29.68336 24.2874,-5.56826 49.9928,-5.97344 76.6111,-0.94964 27.1189,4.94764 53.6404,15.58545 78.7436,31.81651 25.1032,16.23102 45.6903,36.05241 61.3341,58.75511 15.8333,22.45939 26.148,46.1897 31.0273,70.62625 5.0792,24.21211 4.5235,47.52174 -1.1818,69.78524 -5.2235,22.2738 -15.961,41.9332 -31.5132,59.3279 -15.5484,17.3905 -33.9443,30.36 -54.6607,39.5134 -20.2732,9.1414 -41.4807,14.5464 -63.538,16.6234 -22.0766,2.0788 -43.6474,0.5921 -65.0633,-4.3461 -21.4406,-4.9439 -41.3107,-13.4583 -60.3573,-25.7725 -19.0471,-12.3145 -35.0527,-26.8094 -48.5094,-44.0599 -13.1752,-17.0806 -23.369,-35.796 -30.6473,-56.5009 -7.271,-20.6838 -11.0126,-42.23923 -10.8428,-64.75495 0.1696,-22.49906 4.831,-44.95998 14.7102,-67.11017 z m 23.6732,11.37791 c -8.629,18.28283 -12.9355,37.23496 -13.458,56.67125 -0.5226,19.445 2.3894,38.24216 8.4378,56.45886 6.053,18.2308 14.6931,34.9368 25.9396,50.3765 11.6818,15.339 25.6261,28.1549 42.2167,38.8714 17.109,11.0512 34.7657,18.6872 53.5464,23.0437 18.9535,4.1021 37.845,5.2296 56.9535,3.2759 19.0922,-1.9522 37.4296,-7.0017 54.951,-15.4483 17.7676,-8.2279 33.5307,-19.9212 46.8798,-35.5147 13.1507,-15.3618 22.1725,-32.6537 26.535,-52.1314 4.8432,-19.4808 5.171,-39.60372 0.6445,-60.22712 -4.3333,-20.86585 -13.171,-41.15023 -26.5869,-60.44892 -13.4119,-19.29289 -30.9847,-36.12701 -52.3992,-49.97299 -21.7443,-14.05924 -44.5645,-23.13107 -67.809,-27.15967 -23.0972,-4.29979 -45.2127,-4.02127 -66.0099,0.60131 -20.4618,4.79801 -38.5691,13.577 -54.3416,25.98895 -15.3075,12.2916 -27.0013,27.60924 -35.4997,45.61523 z"
       id="path7-62" /></g><g
     id="layer2"
     style="display:inline"
     transform="translate(-17.04105,-21.780064)"><circle
       style="display:inline;fill:none;fill-opacity:1;stroke:#000000;stroke-width:52.1596;stroke-linecap:round;stroke-linejoin:round;stroke-dasharray:none;stroke-opacity:1"
       id="circle1"
       cx="1588.2517"
       cy="1592.9907"
       r="1545.1309" /></g></svg>
